<?xml version="1.0" encoding="UTF-8" standalone="no"?>
<svg
   xmlns:dc="http://purl.org/dc/elements/1.1/"
   xmlns:cc="http://creativecommons.org/ns#"
   xmlns:rdf="http://www.w3.org/1999/02/22-rdf-syntax-ns#"
   xmlns:svg="http://www.w3.org/2000/svg"
   xmlns="http://www.w3.org/2000/svg"
   xmlns:sodipodi="http://sodipodi.sourceforge.net/DTD/sodipodi-0.dtd"
   xmlns:inkscape="http://www.inkscape.org/namespaces/inkscape"
   id="Gradient"
   height="100"
   viewBox="0 0 248 100"
   width="248"
   version="1.1"
   sodipodi:docname="logot.svg"
   inkscape:version="0.92.4 (unknown)">
  <metadata
     id="metadata94">
    <rdf:RDF>
      <cc:Work
         rdf:about="">
        <dc:format>image/svg+xml</dc:format>
        <dc:type
           rdf:resource="http://purl.org/dc/dcmitype/StillImage" />
        <dc:title></dc:title>
      </cc:Work>
    </rdf:RDF>
  </metadata>
  <defs
     id="defs92" />
  <sodipodi:namedview
     pagecolor="#ffffff"
     bordercolor="#666666"
     borderopacity="1"
     objecttolerance="10"
     gridtolerance="10"
     guidetolerance="10"
     inkscape:pageopacity="0"
     inkscape:pageshadow="2"
     inkscape:window-width="1366"
     inkscape:window-height="700"
     id="namedview90"
     showgrid="false"
     inkscape:zoom="1.0234375"
     inkscape:cx="256"
     inkscape:cy="233.41499"
     inkscape:window-x="0"
     inkscape:window-y="0"
     inkscape:window-maximized="1"
     inkscape:current-layer="text106"
     showguides="false"
     inkscape:lockguides="false" />
  <linearGradient
     id="linear-gradient"
     gradientUnits="userSpaceOnUse"
     x1="256"
     x2="256"
     y1="555.63202"
     y2="-80.389"
     gradientTransform="matrix(0.41666667,0,0,0.41666667,25.94402,100.75318)">
    <stop
       offset="0"
       stop-color="#12c2e9"
       id="stop80" />
    <stop
       offset=".5"
       stop-color="#c471ed"
       id="stop82" />
    <stop
       offset="1"
       stop-color="#f64f59"
       id="stop84" />
  </linearGradient>
  <path
     d="m 49.541984,-0.2748 c -27.696875,0 -50,32.82396 -50,60 0,25.04729 18.691458,40 50,40 31.308536,0 50.000006,-14.95271 50.000006,-40 0,-27.17604 -22.30313,-60 -50.000006,-60 z m 0,96.66666 c -29.220417,0 -46.666667,-13.70833 -46.666667,-36.66666 0,-25.66667 20.817083,-56.66667 46.666667,-56.66667 25.849586,0 46.666666,31 46.666666,56.66667 0,22.95833 -17.44625,36.66666 -46.666666,36.66666 z M 31.20865,33.05853 a 5,5 0 1 0 5,5 5.005625,5.005625 0 0 0 -5,-5 z m 0,6.66667 a 1.6666666,1.6666666 0 1 1 1.666667,-1.66667 1.6677083,1.6677083 0 0 1 -1.666667,1.66667 z m 36.66667,-6.66667 a 5,5 0 1 0 5,5 5.005625,5.005625 0 0 0 -5,-5 z m 0,6.66667 a 1.6666666,1.6666666 0 1 1 1.66666,-1.66667 1.6677083,1.6677083 0 0 1 -1.66666,1.66667 z M 36.20865,28.05853 a 1.6666666,1.6666666 0 0 1 -1.666665,1.66667 h -6.666668 a 1.66667,1.66667 0 0 1 0,-3.33334 h 6.666668 a 1.6666666,1.6666666 0 0 1 1.666665,1.66667 z m 36.66667,0 a 1.6666666,1.6666666 0 0 1 -1.66667,1.66667 h -6.66667 a 1.66667,1.66667 0 0 1 0,-3.33334 h 6.66667 a 1.6666666,1.6666666 0 0 1 1.66667,1.66667 z m -15.666671,18 -4.89,3.66667 4.89,3.66666 a 1.6666666,1.6666666 0 1 1 -1.99875,2.66667 l -5.667915,-4.25 -5.666665,4.25 a 1.6666666,1.6666666 0 1 1 -1.99875,-2.66667 l 4.88875,-3.66666 -4.89,-3.66667 a 1.6666666,1.6666666 0 1 1 1.99875,-2.66667 l 5.667915,4.25 5.666665,-4.25 a 1.6666666,1.6666666 0 0 1 1.99875,2.66667 z"
     id="path87"
     style="fill:#ffffff;stroke-width:0.20833333"
     inkscape:connector-curvature="0" />
  <flowRoot
     xml:space="preserve"
     id="flowRoot96"
     style="font-style:normal;font-variant:normal;font-weight:normal;font-stretch:normal;font-size:40px;line-height:1.25;font-family:Rokkitt;-inkscape-font-specification:Rokkitt;letter-spacing:0px;word-spacing:0px;fill:#000000;fill-opacity:1;stroke:none"
     transform="translate(0,-412)"><flowRegion
       id="flowRegion98"
       style="font-style:normal;font-variant:normal;font-weight:normal;font-stretch:normal;font-family:Rokkitt;-inkscape-font-specification:Rokkitt"><rect
         id="rect100"
         width="184.67175"
         height="62.534351"
         x="262.83969"
         y="176.85497"
         style="font-style:normal;font-variant:normal;font-weight:normal;font-stretch:normal;font-family:Rokkitt;-inkscape-font-specification:Rokkitt" /></flowRegion><flowPara
       id="flowPara102"></flowPara></flowRoot>  <g
     aria-label="quiet"
     style="font-style:normal;font-weight:normal;font-size:40px;line-height:1.25;font-family:sans-serif;letter-spacing:0px;word-spacing:0px;fill:#000000;fill-opacity:1;stroke:none"
     id="text106"
     transform="translate(0,-50)">
    <path
       d="m 146.22342,118.98474 v 3.73333 h -14.73334 v -3.73333 h 5.13334 v -9.46667 q -2,1.53334 -4.4,2.40001 -2.33334,0.8 -4.66667,0.8 -3.66667,0 -6.73333,-1.66667 -3.06667,-1.66667 -4.86667,-4.8 -1.8,-3.2 -1.8,-7.4 0,-4.266668 1.73333,-7.400001 1.73334,-3.133334 4.66667,-4.733333 2.93333,-1.6 6.46667,-1.6 2.53333,0 5.06666,0.866666 2.53334,0.866667 4.53334,2.4 l 0.0667,-2.6 h 9.46667 v 3.533333 h -4.6 v 29.666665 z m -27,-19.73333 q 0,4.53333 2.6,7.13333 2.66666,2.6 6.73333,2.6 2,0 4.06667,-0.73333 2.13333,-0.8 4,-2.13334 V 91.851409 q -2.06667,-1.466667 -4.33334,-2.2 -2.2,-0.8 -4.33333,-0.8 -3.86667,0 -6.33333,2.733333 -2.4,2.733333 -2.4,7.666668 z"
       style="font-style:normal;font-variant:normal;font-weight:normal;font-stretch:normal;font-size:66.66666412px;font-family:Rokkitt;-inkscape-font-specification:Rokkitt;fill:#ffffff"
       id="path148"
       inkscape:connector-curvature="0" />
    <path
       d="m 180.84321,108.45141 v 3.53333 h -9.6 l -0.13334,-3.2 q -4.8,3.86667 -9.66666,3.86667 -4.4,0 -6.6,-2.46667 -2.13333,-2.46666 -2.13333,-6.33333 V 89.318075 h -4.4 v -3.533333 h 9.33333 v 17.533328 q 0,2.53334 1.2,4 1.26666,1.40001 3.73333,1.40001 4.53333,0 8.53333,-3.66667 V 89.318075 h -4.73333 v -3.533333 h 9.6 v 22.666668 z"
       style="font-style:normal;font-variant:normal;font-weight:normal;font-stretch:normal;font-size:66.66666412px;font-family:Rokkitt;-inkscape-font-specification:Rokkitt;fill:#ffffff"
       id="path150"
       inkscape:connector-curvature="0" />
    <path
       d="m 189.89425,80.051409 q -1.53334,0 -2.6,-0.933333 -1,-1 -1,-2.466667 0,-1.466666 1,-2.4 1.06666,-1 2.6,-1 1.53333,0 2.53333,1 1.06667,0.933334 1.06667,2.4 0,1.466667 -1.06667,2.466667 -1,0.933333 -2.53333,0.933333 z m -6.86667,28.400001 h 5.06667 V 89.318075 h -5 v -3.533333 h 9.86666 v 22.666668 h 4.73334 v 3.53333 h -14.66667 z"
       style="font-style:normal;font-variant:normal;font-weight:normal;font-stretch:normal;font-size:66.66666412px;font-family:Rokkitt;-inkscape-font-specification:Rokkitt;fill:#ffffff"
       id="path152"
       inkscape:connector-curvature="0" />
    <path
       d="m 227.79946,99.91808 h -21.6 q 0.46667,4.2 3,6.66666 2.53333,2.4 6.46667,2.4 5.46666,0 9.93333,-4.2 l 1.73333,3 q -1.93333,2.26667 -4.86666,3.66667 -2.93334,1.33333 -6.6,1.33333 -4.13334,0 -7.53334,-1.73333 -3.4,-1.73333 -5.33333,-4.86667 -1.93333,-3.2 -1.93333,-7.26666 0,-4.133338 1.8,-7.266671 1.86666,-3.2 5,-4.866667 3.2,-1.733333 7.06666,-1.733333 6,0 9.4,3.666666 3.46667,3.666667 3.46667,9.933335 z m -4.86667,-3.066672 q 0,-3.799999 -2.26666,-5.999999 -2.2,-2.2 -5.73334,-2.2 -3.46666,0 -5.86666,2.2 -2.4,2.2 -2.86667,5.999999 z"
       style="font-style:normal;font-variant:normal;font-weight:normal;font-stretch:normal;font-size:66.66666412px;font-family:Rokkitt;-inkscape-font-specification:Rokkitt;fill:#ffffff"
       id="path154"
       inkscape:connector-curvature="0" />
    <path
       d="m 243.39529,111.98474 q -7.6,0 -7.6,-7.73333 V 89.318075 h -4.33333 v -3.533333 h 4.33333 v -8.933333 l 4.93333,-1.933333 v 10.866666 h 6.93334 v 3.533333 h -6.93334 v 14.666665 q 0,2.46667 0.8,3.46667 0.8,1 2.73334,1 h 4 v 3.53333 z"
       style="font-style:normal;font-variant:normal;font-weight:normal;font-stretch:normal;font-size:66.66666412px;font-family:Rokkitt;-inkscape-font-specification:Rokkitt;fill:#ffffff"
       id="path156"
       inkscape:connector-curvature="0" />
  </g>
</svg>
