<svg id="Gradient" height="512" viewBox="0 0 512 512" width="512" xmlns="http://www.w3.org/2000/svg" xmlns:xlink="http://www.w3.org/1999/xlink"><linearGradient id="linear-gradient" gradientUnits="userSpaceOnUse" x1="256" x2="256" y1="555.632" y2="-80.389"><stop offset="0" stop-color="#12c2e9"/><stop offset=".5" stop-color="#c471ed"/><stop offset="1" stop-color="#f64f59"/></linearGradient><path d="m256 16c-132.945 0-240 157.555-240 288 0 120.227 89.719 192 240 192s240-71.773 240-192c0-130.445-107.055-288-240-288zm0 464c-140.258 0-224-65.8-224-176 0-123.2 99.922-272 224-272s224 148.8 224 272c0 110.2-83.742 176-224 176zm-88-304a24 24 0 1 0 24 24 24.027 24.027 0 0 0 -24-24zm0 32a8 8 0 1 1 8-8 8.005 8.005 0 0 1 -8 8zm176-32a24 24 0 1 0 24 24 24.027 24.027 0 0 0 -24-24zm0 32a8 8 0 1 1 8-8 8.005 8.005 0 0 1 -8 8zm-152-56a8 8 0 0 1 -8 8h-32a8 8 0 0 1 0-16h32a8 8 0 0 1 8 8zm176 0a8 8 0 0 1 -8 8h-32a8 8 0 0 1 0-16h32a8 8 0 0 1 8 8zm-75.2 86.4-23.472 17.6 23.472 17.6a8 8 0 1 1 -9.594 12.8l-27.206-20.4-27.2 20.4a8 8 0 1 1 -9.594-12.8l23.466-17.6-23.472-17.6a8 8 0 1 1 9.594-12.8l27.206 20.4 27.2-20.4a8 8 0 0 1 9.594 12.8z" fill="url(#linear-gradient)"/></svg>